<svg xmlns="http://www.w3.org/2000/svg" xmlns:xlink="http://www.w3.org/1999/xlink" width="300" height="300" viewBox="580498.1504098402 6629116.560187149 31018.051932549104 40959.38146179821" preserveAspectRatio="xMinYMin meet"><g transform="matrix(1,0,0,-1,0,13299192.501836095)"><path fill-rule="evenodd" fill="#66cc99" stroke="#555555" stroke-width="273.06254307865476" opacity="0.6" d="M 582114.6012317248,6653831.279539185 L 582074.7986618547,6653925.177799528 L 582044.726430507,6654022.844744662 L 582024.7789509252,6654123.070835717 L 582015.164538055,6654224.809394459 L 582015.9835968566,6654326.997947696 L 582027.2275737587,6654428.569322863 L 582048.7790459847,6654528.462792693 L 582080.4129478191,6654625.635152573 L 582121.7989210072,6654719.071614904 L 582172.5047647426,6654807.79640671 L 582232.0009492147,6654890.882959792 L 582244.3879324192,6654906.436382287 L 582263.6814687466,6654932.906768913 L 582269.3509221954,6654940.60753295 L 582301.261406247,6654983.519964753 L 582333.4074284086,6655026.7972091315 L 582365.1168807917,6655069.680412234 L 582367.1337483868,6655072.398348703 L 582399.4046934556,6655115.733329509 L 582403.5029707747,6655121.197637297 L 582431.0036740918,6655157.605120245 L 582458.4948197089,6655195.328207338 L 582475.240310809,6655217.645327116 L 582495.6718905835,6655244.098066279 L 582514.78849541,6655271.104825786 L 582527.513588528,6655288.674757446 L 582560.454819379,6655333.134500051 L 582565.2951748857,6655339.612453233 L 582593.0159439318,6655376.400607224 L 582620.2311210213,6655413.678898226 L 582652.1930456777,6655457.488310328 L 582658.0835876861,6655465.478728893 L 582718.4805706888,6655546.560487758 L 582745.2366229075,6655583.767741013 L 582746.141219247,6655585.023630795 L 582778.2726636756,6655629.560372612 L 582791.382318,6655647.3151373165 L 582820.6521104695,6655686.054011923 L 582882.0032789427,6655769.1919045355 L 582883.1512665122,6655770.74442039 L 582945.3517591972,6655854.6934900265 L 582946.0085730132,6655855.578939832 L 583028.1278497862,6655966.156385802 L 583123.653733202,6656095.5019664215 L 583124.8622613391,6656097.134884827 L 583286.5235087338,6656315.102213912 L 583510.756658551,6656618.7982877465 L 583514.2449601516,6656623.493957456 L 583672.9925530107,6656835.886614897 L 583823.3700044089,6657040.25440442 L 583824.199380499,6657041.379904175 L 583986.2781488901,6657261.006264285 L 583988.0554828316,6657263.407143647 L 584116.1761235506,6657435.93713876 L 584210.6369984365,6657564.781532082 L 584216.3329644639,6657572.473347016 L 584311.469801652,6657699.668541667 L 584405.5178198336,6657826.815540042 L 584406.3352777924,6657827.919105911 L 584470.6383398228,6657914.603540007 L 584566.91363675,6658044.597270374 L 584571.0853110114,6658050.189098159 L 584634.4750640268,6658134.542940412 L 584695.1433282726,6658216.7077826345 L 584753.074367697,6658296.300630522 L 584758.887779846,6658304.206003207 L 584816.7421926275,6658382.075956813 L 584879.1242315879,6658467.138687066 L 584886.9851864107,6658477.710958557 L 584918.3045626872,6658519.258280509 L 584981.6972223183,6658603.744625454 L 585043.6809462935,6658686.700273698 L 585105.9788706372,6658771.448666746 L 585110.0361854504,6658776.928876785 L 585201.0558019086,6658898.996515475 L 585260.4275316814,6658981.877529548 L 585274.4968699737,6659001.032874381 L 585346.6815035185,6659096.902853347 L 585408.5245289662,6659181.289259954 L 585416.3731583193,6659191.852429858 L 585446.4073344951,6659231.723558361 L 585507.3897019532,6659313.946493504 L 585573.9438021635,6659404.6552630775 L 585577.4904985562,6659409.459035553 L 585641.1047760001,6659495.084307317 L 585705.0130352421,6659581.716015475 L 585709.1106728764,6659587.230865949 L 585740.7465744943,6659629.504264564 L 585803.6658973221,6659714.411658208 L 585867.210079659,6659800.2892067125 L 585868.769098569,6659802.390407132 L 585933.7955882886,6659889.792050848 L 585934.7460400695,6659891.0674271565 L 585997.3753082628,6659974.967995411 L 586059.8027930153,6660059.552885647 L 586060.7837577871,6660060.879731933 L 586091.7942747097,6660102.752033723 L 586154.6740307014,6660188.351978497 L 586157.9270279979,6660192.7550622495 L 586221.6183485887,6660278.472324309 L 586286.8523046452,6660366.427127261 L 586349.1042027073,6660450.256455785 L 586409.3496212359,6660533.244819584 L 586414.8531575875,6660540.752220054 L 586479.0842525354,6660627.520320036 L 586543.5319198191,6660714.492576372 L 586553.1050521795,6660727.198953912 L 586572.9714001332,6660753.135592973 L 586612.9747508509,6660808.204621589 L 586615.0168403022,6660811.005561152 L 586678.9428826439,6660898.368349065 L 586683.3860198716,6660904.392994099 L 586775.6781327289,6661028.560304378 L 586868.8068216664,6661155.628764685 L 586870.9117168597,6661158.4900943255 L 586966.8292898242,6661288.393497087 L 587031.3582022814,6661375.785541734 L 587032.0492094135,6661376.720241129 L 587096.7889861335,6661464.184917837 L 587154.971349785,6661542.884176504 L 587158.7509119516,6661547.996364347 L 587219.9033362039,6661622.852348583 L 587287.9971642457,6661691.454593082 L 587362.3961928973,6661753.162144513 L 587442.4053092541,6661807.398466914 L 587527.2769851518,6661853.6568283 L 587587.4494933038,6661879.262729495 L 587584.9884638635,6661899.65559658 L 587579.9023012216,6661954.429525741 L 587571.3850026296,6662085.111750161 L 587570.9654846907,6662091.904567299 L 587561.6261001724,6662251.97933317 L 587555.1860955126,6662358.741477097 L 587555.0454635447,6662361.120012117 L 587552.1083272508,6662411.821457925 L 587545.1072269458,6662522.623023071 L 587544.1936616104,6662539.290774962 L 587539.8795298315,6662632.182810667 L 587539.503622079,6662641.143834998 L 587537.2245079118,6662701.988926973 L 587537.3838808053,6662780.888467555 L 587539.0341190444,6662820.649564069 L 587498.8242095477,6662956.300469101 L 587452.7380178291,6663109.931331369 L 587451.5809210157,6663113.817183381 L 587421.6379399211,6663215.124422617 L 587396.074265977,6663300.888970671 L 587343.251505751,6663417.220161166 L 587276.661255695,6663562.678579401 L 587209.7813128266,6663708.936831113 L 587204.8463856428,6663719.902794506 L 587162.639531358,6663815.218457345 L 587121.6476462443,6663906.145047443 L 587101.9303000394,6663949.0023088185 L 587096.7210917302,6663957.895487473 L 587071.5529158175,6664002.637021952 L 587070.2746764066,6664004.916316125 L 587020.7409766006,6664093.513539464 L 586960.5645019972,6664199.563729227 L 586906.7520470812,6664294.509712026 L 586853.8467357039,6664388.01979957 L 586808.1476634447,6664468.248953876 L 586805.071611411,6664473.688713537 L 586756.8228663816,6664559.638571748 L 586755.3217152886,6664562.322367057 L 586692.4789469334,6664675.080815503 L 586664.2086163193,6664729.689840591 L 586636.7868898507,6664786.902749601 L 586599.6518498695,6664858.312319076 L 586562.3429814677,6664928.803725267 L 586552.3619504825,6664945.542951164 L 586506.3295125962,6665032.133087673 L 586468.999706851,6665122.815625581 L 586440.7315279067,6665216.718485694 L 586421.796826235,6665312.9386195075 L 586412.3776937769,6665410.550693669 L 586412.5647127946,6665508.615988766 L 586422.3560847567,6665606.19142683 L 586441.6576476344,6665702.338640773 L 586470.283781442,6665796.132998501 L 586507.9591933144,6665886.672494957 L 586554.321564954,6665973.086426556 L 586608.9250369861,6666054.543764595 L 586671.244496716,6666130.261147127 L 586700.1472761154,6666162.061991465 L 586753.218474361,6666221.027652436 L 586770.4574863708,6666242.333405671 L 586911.8534638791,6666399.302691074 L 587088.001372251,6666597.275730526 L 587091.0648043738,6666600.702835424 L 587234.7481926319,6666760.701850761 L 587377.8537736944,6666920.104606078 L 587518.8559928823,6667078.7154153995 L 587521.8565225631,6667082.075384899 L 587666.2583755272,6667243.04420267 L 587669.9555033599,6667247.142683116 L 587774.1505021598,6667362.009889628 L 587879.3847109107,6667480.074908711 L 587881.6105991864,6667482.56381305 L 587988.4403286371,6667601.616186461 L 588057.8314358884,6667679.520123138 L 588128.6322127545,6667759.392297556 L 588136.4608872609,6667768.120407218 L 588172.6204459063,6667807.961945289 L 588195.5584517485,6667831.051945506 L 588209.2299390043,6667860.78946169 L 588256.6781286218,6667942.605442631 L 588311.6435175375,6668019.572912751 L 588373.6344301552,6668091.003383757 L 588442.0963462659,6668156.25789684 L 588516.416861335,6668214.75273828 L 588595.9311645735,6668265.964660874 L 588679.9279857941,6668309.435564478 L 588767.6559578552,6668344.776593797 L 588858.3303377785,6668371.671616771 L 589158.4203298711,6668445.438765337 L 589219.1738703346,6668460.383704794 L 589309.099841468,6668478.177938183 L 589776.0582984345,6668548.513970487 L 589869.5320394428,6668558.128840749 L 589963.4955860903,6668558.927520732 L 590057.119260369,6668550.902958264 L 590996.2076253842,6668425.737913487 L 591319.5472803689,6668393.540216864 L 591385.539060563,6668384.74172578 L 591556.89959285,6668356.059972191 L 593275.0546881994,6668467.26169702 L 593370.5591491131,6668468.871506007 L 593465.7815236251,6668461.361983272 L 593559.8530319722,6668444.801643399 L 593651.9153945412,6668419.341577853 L 593741.1286625498,6668385.214076471 L 593826.6788814809,6668342.730508114 L 593907.7855173548,6668292.278479843 L 593983.7085780817,6668234.318300502 L 594675.7511834602,6667651.651200402 L 594693.6213922589,6667636.95338962 L 594716.1375397855,6667623.688787434 L 594788.1786501803,6667570.865992134 L 594866.1616716282,6667561.937041994 L 594959.7137011263,6667542.027868124 L 595050.935732097,6667513.272025361 L 595138.993232796,6667475.932582435 L 595223.0806217325,6667430.351133914 L 595302.4286374176,6667376.944675183 L 595376.3113758424,6667316.201787613 L 595444.0529313084,6667248.678168854 L 595473.1377604152,6667213.533204113 L 595520.3940983317,6667270.977026718 L 595588.1520428719,6667338.87547855 L 595607.9005697847,6667356.85173408 L 595679.615349831,6667416.266583539 L 595756.5464166775,6667468.752247935 L 595838.0265368719,6667513.853512068 L 595876.4688267166,6667532.850104017 L 595964.3384157161,6667571.1474606255 L 596014.3029232157,6667590.129808234 L 596099.1881057423,6667618.106472242 L 596186.2322117356,6667638.392219785 L 596333.8888495084,6667665.911779081 L 596425.7694100931,6667678.659694868 L 596518.4359083815,6667682.8390327655 L 596611.0909911548,6667678.413831465 L 596698.6320338266,6667670.149993184 L 596806.8229910966,6667653.92595564 L 596912.5942435868,6667625.980566469 L 597014.6798677833,6667586.648290135 L 597103.0182448002,6667546.9350428255 L 597188.3912615973,6667503.526310102 L 597269.2200145491,6667452.149440112 L 597344.7630720066,6667393.275706208 L 597406.8330446385,6667339.93323006 L 597408.5948128431,6667338.666571947 L 597410.8193529949,6667336.82780048 L 597435.1640340206,6667327.866547432 L 597439.1121581834,6667326.1688443115 L 597484.6560713158,6667305.216984504 L 597496.4535137063,6667299.427137342 L 597496.0653983181,6667298.636310088 L 597544.4564881986,6667276.2114399485 L 597547.8029124722,6667274.398716376 L 597641.3866962362,6667216.841361336 L 597728.0915561813,6667149.365136156 L 597806.8708975642,6667072.784531078 L 597867.5068475364,6666999.2605468 L 597883.893396903,6666980.5892763985 L 597884.4736147351,6666979.74564243 L 597889.5187890698,6666976.0180275105 L 597893.0940901253,6666973.438451205 L 597991.5161254979,6666892.406089281 L 597998.8999402924,6666885.491630188 L 598070.5040146346,6666811.14022043 L 598134.061958221,6666729.803491933 L 598188.8965436463,6666642.348109957 L 598234.4234932908,6666549.705935697 L 598249.9900990925,6666507.519508268 L 598259.7206292856,6666501.16193222 L 598686.100305692,6666225.541477561 L 598714.8531477267,6666205.065933234 L 598805.1082532015,6666149.411248315 L 598825.5955401221,6666135.039248871 L 598903.8307326147,6666074.154230947 L 598975.6530763925,6666005.822088538 L 599040.3567207988,6665930.714371541 L 599097.3057758381,6665849.569218376 L 599102.4439558655,6665841.416449162 L 599136.8056652928,6665777.7361160945 L 599137.4103304198,6665776.83033061 L 599147.7275121418,6665759.856104219 L 599198.6921691768,6665664.810366364 L 599239.1249052782,6665564.828956081 L 599268.5554437122,6665461.0747660035 L 599286.6414752798,6665354.754570305 L 599288.9530397903,6665334.662723002 L 599295.3268668811,6665239.309262402 L 599292.5694245197,6665143.782802027 L 599280.7058961737,6665048.955776262 L 599259.8446303576,6664955.694231622 L 599230.1761510953,6664864.849917224 L 599191.971417882,6664777.252505845 L 599145.579351036,6664693.702016595 L 599091.4236450411,6664614.961508416 L 599029.9988989844,6664541.750111133 L 598961.866099428,6664474.736457712 L 598887.6474969703,6664414.5325776925 L 598868.0864595361,6664401.550871987 L 598844.3453587055,6664368.620848927 L 598794.9612041131,6664308.214162587 L 598792.7981935318,6664305.577556158 L 598753.521001924,6664257.866680233 L 598778.2932753455,6664229.572586671 L 598781.425571993,6664225.482239239 L 598847.8628724479,6664125.08903814 L 598865.6363268753,6664106.90539833 L 598924.5066791705,6664034.161595116 L 598976.3192840379,6663956.233209644 L 599020.6203988447,6663873.802690344 L 599050.1089951933,6663803.964265049 L 599053.8086226824,6663796.694684611 L 599087.1993394049,6663713.315647923 L 599098.4480028235,6663675.766504298 L 599158.3259905409,6663542.859340471 L 599172.2770572831,6663510.371411816 L 599207.0909582129,6663425.176715498 L 599221.6176076334,6663387.4695979655 L 599290.2680617775,6663197.9432410505 L 599320.3985080776,6663099.077820581 L 599322.1307291004,6663092.123552922 L 599329.4318024014,6663064.867205323 L 599330.5698188167,6663060.580757507 L 599335.4866683173,6663041.893991786 L 599356.2950974538,6663019.354524593 L 599413.7113448572,6662943.930315279 L 599463.7280947464,6662863.408507383 L 599480.0989778421,6662834.03229631 L 599535.5579031201,6662741.84680325 L 599595.4110902827,6662625.826516943 L 599652.4114103653,6662495.021618661 L 599687.4573088671,6662402.300249831 L 599711.7830083575,6662326.825439774 L 599722.873487049,6662304.301362326 L 599724.4710674663,6662300.532864949 L 599742.3404881267,6662255.357667628 L 599743.7009874276,6662251.65790671 L 599745.934502988,6662245.105136183 L 599754.1610911014,6662225.5134538915 L 599756.1470580068,6662220.234807552 L 599784.4598744747,6662133.048270588 L 599785.8408485767,6662126.938579133 L 599806.8564212071,6662068.763261675 L 599808.2278655757,6662064.392097845 L 599812.5691324675,6662050.548496511 L 599823.0738585106,6662014.462444671 L 599831.7399624373,6662001.753366735 L 599835.6543079922,6661995.355658619 L 599896.4427620445,6661879.631021825 L 599898.4620955702,6661875.088014174 L 599899.0089405171,6661873.855508406 L 599900.7648845115,6661869.890667863 L 599932.4453439331,6661789.048869331 L 599948.721640755,6661733.828262189 L 599964.3005520109,6661714.512572949 L 600017.3960155072,6661633.842457451 L 600042.1899783958,6661591.892025608 L 600081.3690767561,6661518.851479522 L 600114.364831822,6661442.817255198 L 600117.4774114175,6661433.6260555815 L 600137.7434782954,6661401.143223606 L 600184.3674908461,6661304.803479956 L 600186.5977376942,6661299.486828468 L 600215.0174592289,6661221.211365471 L 600215.1371167714,6661221.252821455 L 600217.9455689883,6661213.146573321 L 600219.9715664416,6661207.566438115 L 600225.7650486733,6661188.795025149 L 600225.1423113153,6661188.602827693 L 600241.0048627395,6661134.494358551 L 600244.7838810647,6661132.725383189 L 600248.5709260439,6661132.196536944 L 600256.1420609745,6661130.938791618 L 600296.06129748,6661121.520629951 L 600296.6604031086,6661121.532179775 L 600302.2135812438,6661121.274965561 L 600375.5818553073,6661115.163634393 L 600448.3016664209,6661103.6709811175 L 600451.8678179879,6661102.971953084 L 600555.7782760478,6661076.751971316 L 600656.2861422652,6661039.562731386 L 600703.0781913425,6661016.285742677 L 600710.2255710898,6661018.428743783 L 600810.2593254538,6661037.605173078 L 600911.7248653284,6661046.506390446 L 600938.6188380825,6661046.119176166 L 601008.3866859728,6661053.742239264 L 601056.8104645958,6661056.38393601 L 601117.3218979299,6661057.850443127 L 601181.5269951863,6661057.462719321 L 601291.5868167578,6661050.718652302 L 601334.7388810839,6661045.674651432 L 601449.3078468323,6661025.469582254 L 601560.754890985,6660992.095204615 L 601580.072007259,6660985.06215128 L 601654.7568248783,6660954.4024045365 L 601684.4689845452,6660940.77860936 L 601784.8384135377,6660887.663525259 L 601878.5388296101,6660823.511623781 L 601964.3619439304,6660749.150158736 L 601984.6189293829,6660729.477067707 L 602053.7158504969,6660655.198624672 L 602114.9315201129,6660574.301693948 L 602167.635926662,6660487.6188401785 L 602211.2866536996,6660396.042174831 L 602245.4344622776,6660300.51417487 L 602251.4895463899,6660280.41137785 L 602274.3345200251,6660189.256122336 L 602288.5218277352,6660096.35890102 L 602291.2494951859,6660070.363184984 L 602296.7084668392,6659967.337851421 L 602291.5234281701,6659864.298368206 L 602275.7495688327,6659762.341489631 L 602272.6071386464,6659747.235628628 L 602270.726869598,6659723.051899306 L 602238.0814920464,6659439.906800114 L 602223.7245874451,6659350.881819491 L 602148.7087277274,6658990.081384892 L 602161.3568269518,6658945.035920519 L 602162.387987863,6658940.322566878 L 602179.1919712562,6658838.684340747 L 602179.7118692717,6658834.074991296 L 602185.9943075117,6658728.081046987 L 602183.6185467151,6658677.59975221 L 602183.6336232513,6658676.847704753 L 602183.5326669506,6658664.945943293 L 602182.7284674231,6658637.972249956 L 602188.6014160347,6658605.164318397 L 602189.2090738391,6658600.583028373 L 602194.2025061744,6658539.852479886 L 602196.4795372608,6658522.580098474 L 602196.988552154,6658518.090189407 L 602201.7138006589,6658462.685479998 L 602202.8243266969,6658443.316862973 L 602204.1336175252,6658411.778292553 L 602204.3035305281,6658405.170047461 L 602204.6048578453,6658387.091089615 L 602204.6452346751,6658381.795796643 L 602204.6926504313,6658375.333415753 L 602205.2933821339,6658361.260926207 L 602207.6300009161,6658342.1476445515 L 602208.3756754262,6658332.962391169 L 602208.7949542082,6658281.488393922 L 602209.2160176421,6658281.512724323 L 602209.4952246877,6658276.680749766 L 602209.4692218822,6658261.550776492 L 602210.2361170636,6658261.570830816 L 602210.5395623299,6658249.966814472 L 602209.4492643528,6658249.938303158 L 602209.380038776,6658209.658759968 L 602209.5615213317,6658187.378518331 L 602209.3357600335,6658183.894763524 L 602209.3342284232,6658183.00358191 L 602211.2387536564,6658171.950758581 L 602218.4979045596,6658083.891730608 L 602219.1402978194,6658067.019598287 L 602219.8095442428,6658039.440806528 L 602219.8786996289,6658032.834719261 L 602228.8224550008,6658004.1389393965 L 602248.9215125015,6657905.908343835 L 602250.7324496927,6657894.060161921 L 602261.2530895579,6657786.763805227 L 602263.6964273347,6657731.025882509 L 602264.621526721,6657695.517043345 L 602265.3231443085,6657610.837591443 L 602262.0631854046,6657521.449206166 L 602250.8286730063,6657432.709719545 L 602244.9404889606,6657398.544932144 L 602254.4081660779,6657325.872618995 L 602255.1391789702,6657303.289843192 L 602258.400501273,6657290.785558507 L 602272.993410548,6657204.560557199 L 602274.2602952552,6657194.389038937 L 602275.7956376434,6657181.366562438 L 602276.453722274,6657175.451563853 L 602277.5698928714,6657167.03240094 L 602285.64459041,6657070.219912877 L 602284.2870844797,6656973.080756185 L 602283.15771302,6656955.053836012 L 602272.0600319428,6656856.526550226 L 602251.2599011117,6656759.582550272 L 602220.9618021318,6656665.17487173 L 602181.4635890872,6656574.231616148 L 602133.1535604012,6656487.646827079 L 602076.5066415583,6656406.271700934 L 602065.8585416562,6656392.4868106935 L 602051.7304950559,6656375.827796649 L 602119.1344922518,6656354.852116732 L 602200.6248658291,6656321.372001886 L 602218.6105412642,6656312.055255581 L 602257.1250072208,6656295.729854333 L 602268.8725302868,6656290.044591098 L 602352.7227183853,6656244.40229622 L 602431.8384022523,6656190.972139079 L 602505.4985157598,6656130.241086034 L 602573.0317152468,6656062.762644345 L 602633.8224981949,6655989.1518174615 L 602660.9196052422,6655949.098382545 L 602682.9327836932,6655921.654658454 L 602729.5487197338,6655852.413130074 L 602755.5500552126,6655810.078924552 L 602794.3578353256,6655740.880303581 L 602827.5577299848,6655668.822965744 L 602849.8572430635,6655614.891586622 L 602886.9364762723,6655508.64513002 L 602900.5035663089,6655448.869802182 L 602941.767994421,6655384.270381087 L 602945.9632970439,6655376.818344993 L 602954.739896371,6655363.684844362 L 603008.1534055601,6655273.940396172 L 603051.9157763615,6655179.114640987 L 603085.5496895799,6655080.241849854 L 603108.6882978049,6654978.4004351245 L 603116.930826114,6654930.716877638 L 603126.8911194162,6654856.740632586 L 603136.7375321533,6654755.028923504 L 603141.0854912534,6654633.969315271 L 603140.2793814044,6654601.34719958 L 603140.2312646107,6654594.813295081 L 603140.1695578756,6654591.213540834 L 603140.9525937443,6654587.428505327 L 603147.7098655974,6654549.674199461 L 603158.601340964,6654514.340366706 L 603165.7432027176,6654491.149521898 L 603187.3017568184,6654408.848189073 L 603201.7865858623,6654325.012216082 L 603202.634018007,6654318.455551455 L 603203.8964938545,6654303.319411438 L 603220.962917444,6654277.131271556 L 603264.8131485613,6654192.423507251 L 603265.7770355637,6654190.972455656 L 603318.1833222822,6654087.988322298 L 603331.7525434458,6654057.015631615 L 603397.8338799536,6654042.391381262 L 603492.8492818917,6654011.129322671 L 603584.2662457483,6653970.531519381 L 603671.1701225933,6653921.004162273 L 603752.691418029,6653863.0427845875 L 603828.014491692,6653797.227303987 L 603896.3857179333,6653724.216220343 L 603924.5944841427,6653687.303172238 L 603967.2479922542,6653637.15252867 L 604036.1882351591,6653546.016814362 L 604054.2248456496,6653515.46379156 L 604105.1993760503,6653460.329546869 L 604106.4098707781,6653458.87811828 L 604185.685879971,6653382.795741426 L 604195.5625149556,6653372.360586883 L 604211.2978749998,6653369.7165978495 L 604311.9250167587,6653341.763350574 L 604409.087991864,6653303.467633314 L 604501.7270237604,6653255.247145334 L 604522.2194361463,6653241.691513782 L 604552.90621723,6653224.296252368 L 604585.8523004561,6653201.282125665 L 604623.4341661271,6653179.0885977615 L 604691.9599425365,6653130.425065076 L 604694.8213216595,6653128.2064379435 L 604780.8311002943,6653053.285164098 L 604857.7493443692,6652969.056528683 L 604924.575279895,6652876.616420307 L 604928.2259147642,6652870.90677831 L 604981.6261070988,6652776.462098089 L 605024.4802227352,6652676.788114842 L 605027.3889715886,6652668.863265265 L 605052.6869202,6652589.981334722 L 605070.2495542796,6652514.1127369 L 605074.4745642756,6652503.129266249 L 605109.8270323044,6652472.370737473 L 605133.815384251,6652446.942583232 L 605140.6057005664,6652441.27041288 L 605144.8226851824,6652437.388642805 L 605202.8485921837,6652379.402081258 L 605255.9264374193,6652316.854582919 L 605272.0707042526,6652294.318208025 L 605305.2053610405,6652254.401077803 L 605308.4079840634,6652250.085811817 L 605347.6478188378,6652190.1170357205 L 605383.9811988791,6652149.753092329 L 605392.3583032157,6652138.973525522 L 605405.8575357009,6652121.196877578 L 605408.5570036888,6652117.558439249 L 605409.1114015038,6652116.715940912 L 605488.7233396447,6652082.8999058 L 605584.7624516311,6652028.941955536 L 605674.2839251754,6651964.747896603 L 605692.2367885147,6651950.3129249895 L 605702.0665339775,6651942.306211722 L 605724.7513631016,6651923.588076286 L 605729.5489203238,6651920.98602531 L 605741.0327036349,6651914.659788998 L 605770.566532909,6651898.136780617 L 605770.0628376437,6651897.236457284 L 605838.2869968048,6651857.828506447 L 606010.4293614795,6651744.931806452 L 606017.558012586,6651743.620577859 L 606044.1063842921,6651746.842963793 L 606100.3302705467,6651761.920304862 L 606121.0443824489,6651766.365330364 L 606121.4795796043,6651767.023666058 L 606182.4251241738,6651842.242341326 L 606250.3584681348,6651911.215301897 L 606324.6429260228,6651973.296118806 L 606407.8392557323,6652036.243494038 L 606482.7110127092,6652087.716444224 L 606561.9456475883,6652132.181230621 L 606644.8890590788,6652169.270785539 L 606730.8565290311,6652198.678925633 L 606819.1383749536,6652220.162879512 L 606840.6940318926,6652224.381630389 L 606946.9873889633,6652239.314832721 L 607054.269006669,6652242.76922003 L 607161.302863637,6652234.704993358 L 607371.5228755071,6652207.457602599 L 607381.5202334739,6652206.11050164 L 607445.7367551862,6652197.127593643 L 607475.6059633169,6652191.413176035 L 607543.8052258507,6652180.712177473 L 607627.8107614663,6652159.958907227 L 607638.5141977953,6652156.8175287545 L 607724.4071430399,6652127.310507569 L 607744.5196249002,6652118.286509402 L 607752.660900216,6652115.710239294 L 607848.7155949336,6652079.799119951 L 607940.5874556163,6652034.239553619 L 608027.3103474075,6651979.510649838 L 608107.9722825887,6651916.187943937 L 608181.7250111453,6651844.9373446405 L 608247.7929410595,6651766.508131291 L 608305.481294523,6651681.725074349 L 608354.1834142996,6651591.479762011 L 608393.3871434008,6651496.721224167 L 608422.6802109865,6651398.445952297 L 608427.0500312733,6651375.362779401 L 608463.1326019757,6651303.659238652 L 608497.1334144202,6651216.731689292 L 608512.9362224218,6651170.01063067 L 608534.0906770361,6651129.585189389 L 608572.8518454502,6651031.598418288 L 608574.7043033344,6651026.08197094 L 608590.8025775499,6651005.640042291 L 608645.4299389033,6650919.470212671 L 608677.1785181388,6650855.860355022 L 608696.1626606801,6650831.047397893 L 608705.8394308706,6650817.01341944 L 608756.9087596502,6650734.680944948 L 608799.770981027,6650647.792840605 L 608804.4409264735,6650635.436807335 L 608811.7064196639,6650620.890333993 L 608829.3347090452,6650580.782400152 L 608856.6041200657,6650505.042202124 L 608896.0008202995,6650435.990843107 L 608938.9404286246,6650337.446892102 L 608940.1650327141,6650334.16521817 L 608955.8249780288,6650308.31814113 L 608967.8701836505,6650285.015126905 L 609000.3878962784,6650215.72624518 L 609027.5108822881,6650144.153244716 L 609032.7108362097,6650128.667247625 L 609037.3667054392,6650118.658458361 L 609051.7765545,6650086.185157485 L 609068.9124358804,6650045.640894422 L 609101.3797464386,6649957.487176347 L 609125.4315465303,6649866.675749875 L 609136.6966802637,6649814.316696732 L 609152.1098623395,6649721.740483131 L 609153.8002606742,6649707.486019519 L 609160.2821250934,6649678.112782894 L 609180.8776925567,6649538.700501599 L 609187.0488941913,6649457.816470913 L 609189.9438011446,6649384.212979127 L 609190.0488911046,6649341.706369493 L 609191.4086919962,6649312.377352623 L 609194.2571070552,6649291.590192826 L 609202.8743372351,6649191.627121112 L 609201.4311467073,6649091.303696311 L 609189.9420638864,6648991.629861537 L 609180.9232140547,6648950.35705685 L 609179.2454544333,6648932.4487764165 L 609190.4869780359,6648872.716059202 L 609191.5323222765,6648862.6209385265 L 609199.900531283,6648842.473979295 L 609208.7989885822,6648819.643724599 L 609228.5255196035,6648783.026724186 L 609251.0707166308,6648735.085546141 L 609288.065880114,6648645.347707469 L 609316.1866717901,6648552.445915851 L 609321.5203509671,6648525.697978408 L 609333.4994990858,6648484.879987047 L 609364.992599806,6648458.241177505 L 609433.8558248964,6648387.183833888 L 609522.1086174207,6648286.606473086 L 609714.9661780931,6648066.950201265 L 609751.595893434,6648025.234090942 L 609811.7467637239,6647949.660901799 L 609864.3260263125,6647868.637107395 L 609908.8431464337,6647782.918613883 L 609944.8828045485,6647693.305126299 L 609972.1087710408,6647600.632687772 L 609990.2670430503,6647505.765879711 L 609999.1882141745,6647409.589755753 L 609998.7890549351,6647313.001584708 L 609989.073289262,6647216.9024795545 L 609970.131559751,6647122.188990562 L 609942.1405820196,6647029.744740986 L 609905.3614960501,6646940.4321833635 L 609860.1374299021,6646855.084553314 L 609806.8902985208,6646774.4980959315 L 609746.1168675105,6646699.424637258 L 609717.152929514,6646669.978634474 L 609716.9834123423,6646627.301186912 L 609706.9697327379,6646529.643394079 L 609687.4288114965,6646433.438037277 L 609658.5489706956,6646339.612278151 L 609620.6085345529,6646249.070345404 L 609573.9731471271,6646162.684820459 L 609519.0922484902,6646081.288228116 L 609456.4947433296,6646005.665013242 L 609437.5956563703,6645986.925827058 L 609380.9636716698,6645914.4332743 L 609375.126513124,6645908.336567414 L 609354.914116945,6645879.825276364 L 609295.6242022174,6645810.552551598 L 609285.2993180425,6645800.507142783 L 609282.5075642276,6645797.331758152 L 609221.2379898826,6645733.56463876 L 609154.5744514622,6645675.459743087 L 609137.664065104,6645663.170270863 L 609081.1267819734,6645610.809502879 L 609018.1722947471,6645562.895291595 L 609017.3442259502,6645562.161886435 L 609015.3017365828,6645560.710530247 L 609004.3660960306,6645552.387492207 L 608998.3539188758,6645548.667715971 L 608930.1190461372,6645500.181243336 L 608867.5931194251,6645465.146236824 L 608867.3235639499,6645464.910232971 L 608863.9448122114,6645461.387102327 L 608862.9847695725,6645460.387423396 L 608858.9868647003,6645456.230231634 L 608854.9063262626,6645452.011959931 L 608845.0391565037,6645441.871453419 L 608835.6281231618,6645432.7679509595 L 608823.0618900141,6645416.276190923 L 608808.1731907298,6645396.708648869 L 608790.7607206048,6645372.596786705 L 608776.698378119,6645354.397134771 L 608737.8982656229,6645304.186342208 L 608713.2523125258,6645271.678266893 L 608698.2951428519,6645253.01475118 L 608667.364432951,6645153.661804406 L 608663.6198686422,6645141.890501211 L 608657.9342564532,6645124.3922379045 L 608620.128363912,6645026.01211856 L 608572.1781587832,6644932.157383884 L 608561.7942414096,6644914.232018749 L 608542.9901440017,6644883.091240793 L 608472.2318948936,6644770.5877052685 L 608446.2268273506,6644705.460859208 L 608390.9678558994,6644567.0629907865 L 608388.5380039868,6644531.714947093 L 608373.9959524843,6644441.582550242 L 608351.2941802939,6644353.152070409 L 608338.0046329502,6644315.894058498 L 608336.2284743836,6644276.09097584 L 608324.6668077898,6644189.198601044 L 608317.2722193172,6644156.12567658 L 608317.759504565,6644094.640751801 L 608308.4018214158,6643994.249759957 L 608288.9825339756,6643895.311351072 L 608259.6990571183,6643798.831324846 L 608220.8490842528,6643705.790489264 L 608197.2239439551,6643662.174511282 L 608197.0564116141,6643655.153863635 L 608186.2520790056,6643562.98539194 L 608166.9502859487,6643472.215344222 L 608162.063734577,6643453.541539008 L 608161.5852124369,6643449.589686776 L 608155.4303491338,6643421.426828803 L 608153.8928977987,6643407.721679494 L 608157.7388872503,6643377.700058953 L 608158.488860989,6643368.123415428 L 608161.1574790728,6643262.346867806 L 608152.6345945111,6643156.880475112 L 608133.0156278107,6643052.905017937 L 608106.2542154574,6642963.990689883 L 608102.2856073542,6642946.60935242 L 608096.9204697073,6642930.103731603 L 608096.5394083841,6642910.199012683 L 608086.5001531614,6642819.5852564005 L 608068.2501141893,6642730.262383906 L 608056.288259396,6642690.574832317 L 608055.9367792258,6642688.940338807 L 608054.6008141647,6642664.39136728 L 608054.291259984,6642661.282118663 L 608047.2475466921,6642614.04804698 L 608047.3571714862,6642611.941675306 L 608047.395054069,6642508.726684591 L 608047.1994944437,6642504.915227348 L 608042.5890691143,6642447.468020843 L 608041.4232466887,6642436.805259448 L 608040.6526653833,6642392.998146632 L 608027.481602903,6642287.385086563 L 608026.4761011882,6642281.773794702 L 608006.1098341893,6642192.092755772 L 608000.7747716954,6642175.7369731115 L 607948.9371432883,6641780.789492369 L 607936.2590033973,6641427.706253386 L 607930.2775458967,6641348.6680063605 L 607820.723725659,6640401.6960532125 L 607812.8944709834,6640347.205757874 L 607811.2224126628,6640337.478668657 L 607774.9215787789,6640124.986339432 L 607819.1161204994,6639823.672172402 L 607871.5839190761,6639465.819842 L 607909.3881828317,6639208.013139034 L 607918.5092914316,6639116.942290144 L 607919.2655356755,6639025.418947579 L 607911.6505804339,6638934.209810996 L 607895.7282169039,6638844.0789479185 L 607811.5691228807,6638468.845509311 L 607862.1191281956,6638262.140555965 L 607882.8486685292,6638177.387746476 L 608009.3530517903,6637822.019701267 L 608396.5944699153,6637220.931626929 L 608448.6640049453,6637129.964908113 L 608540.7344645888,6636947.560381153 L 608581.5292669574,6636855.486755723 L 608821.3900146061,6636230.964249754 L 608867.550693747,6636121.63325062 L 608899.470963248,6636035.093712221 L 608923.281634945,6635945.981158533 L 608938.7801277544,6635855.053758746 L 608941.4469134675,6635833.427114349 L 608944.6946469018,6635790.177206245 L 608986.5200203181,6635723.107671582 L 609028.2283499799,6635639.859025855 L 609062.0127983866,6635553.091907519 L 609086.2813799984,6635468.10771399 L 609105.4377153865,6635449.572439043 L 609164.7002554074,6635380.768987345 L 609191.7901781003,6635346.265845395 L 609245.4003842815,6635271.0813096585 L 609291.8468553189,6635191.272200224 L 609355.2166742261,6635069.808153445 L 609398.2904101065,6634975.65939822 L 609431.3987368562,6634877.561622848 L 609469.8357651157,6634740.655635066 L 609478.8409307272,6634706.239849414 L 609519.0098246773,6634540.757373815 L 609518.8766401685,6634540.725044867 L 609519.6181402713,6634537.57179708 L 609531.6983981889,6634487.661930802 L 609533.2524349311,6634479.591617031 L 609541.5092484439,6634444.479310451 L 609554.6006178616,6634344.095058394 L 609557.4756026262,6634242.901597749 L 609557.2465846443,6634232.603709525 L 609550.6950517093,6634138.427704376 L 609535.2920668585,6634045.289148518 L 609511.1749021478,6633954.018096722 L 609478.5584907751,6633865.427960483 L 609437.7335115853,6633780.308258863 L 609389.0637985296,6633699.417582264 L 609332.9830981604,6633623.476831835 L 609269.9912040646,6633553.1627947735 L 609200.6495026816,6633489.102112768 L 609196.2014996466,6633485.36615055 L 609178.0266686559,6633470.461511359 L 609169.8963108194,6633463.952342101 L 609083.5991360712,6633402.084318442 L 609023.5234674364,6633368.024894343 L 609023.3843865365,6633367.833845956 L 609000.5113472554,6633337.633604714 L 608996.2459769993,6633332.218132434 L 608992.3878293799,6633327.350857376 L 608984.0066422767,6633316.844695993 L 608977.932473679,6633306.854488788 L 608964.5606247407,6633282.776232852 L 608960.0245642951,6633274.286170604 L 608925.8128727253,6633206.573779995 L 608872.2336408522,6633122.530201649 L 608810.5543450908,6633044.237662901 L 608741.3877110902,6632972.473926304 L 608665.4208441452,6632907.95189692 L 608583.4084034538,6632851.312540275 L 608496.1651052885,6632803.118514976 L 608404.5576295594,6632763.848583224 L 608309.4960101655,6632733.892854765 L 608211.9245946667,6632713.5489115175 L 608112.8126630806,6632703.018851377 L 608013.1447989998,6632702.407280562 L 607913.911108682,6632711.720274453 L 607816.097385278,6632730.865317236 L 607745.3275007537,6632752.215156595 L 607733.1551016639,6632746.685246132 L 607727.8394841857,6632744.546581746 L 607619.9462943982,6632708.126060118 L 607608.4374102368,6632705.65359727 L 607555.3500704563,6632677.818679035 L 607473.6654179138,6632643.819969294 L 607389.2953101677,6632617.174526083 L 607377.273364706,6632613.955182015 L 607285.2103642803,6632593.897095429 L 607201.6999914121,6632583.80514963 L 607171.0266968796,6632535.4982832 L 607155.7018606652,6632513.944341392 L 607097.2285417557,6632439.442873068 L 607041.63930044,6632380.977341702 L 607019.6788055414,6632315.943968883 L 606979.4367974387,6632226.695014915 L 606930.6604718032,6632141.808826063 L 606873.817339717,6632062.099019044 L 606809.4522309481,6631988.329596018 L 606796.8691869945,6631976.4789314065 L 606756.09277307,6631902.461775263 L 606705.4499975715,6631827.4835921 L 606648.237520849,6631757.389718132 L 606584.9237081892,6631692.753971157 L 606516.0268729696,6631634.10548646 L 606489.635266667,6631613.62431552 L 606454.8590804866,6631588.893634258 L 606429.6166310158,6631538.896327219 L 606390.4887172005,6631470.009669758 L 606339.8341129263,6631389.920848246 L 606330.2027344181,6631376.180283116 L 606313.1797672937,6631354.997642713 L 606287.9159528738,6631311.835083899 L 606229.5703103106,6631231.609315519 L 606163.5632404513,6631157.558963414 L 606090.5442784687,6631090.412711774 L 606011.2319592742,6631030.831305763 L 605926.4067468552,6630979.401049528 L 605836.9033542074,6630936.628036742 L 605743.6025294341,6630902.9331704425 L 605647.4223888445,6630878.648021185 L 605549.3093823319,6630864.011564259 L 605450.2289799402,6630859.167828078 L 605351.156171264,6630864.164476886 L 605253.065871173,6630878.95234172 L 605216.3128497546,6630886.37387725 L 605118.4348473168,6630911.343135507 L 605023.5751906665,6630946.059309826 L 604932.7017866868,6630990.168171388 L 604914.3904915543,6631001.469267816 L 604888.7116434653,6630970.427722476 L 604821.0545980885,6630902.949780074 L 604747.2659444393,6630842.237482369 L 604736.522304739,6630834.226913736 L 604649.6591952413,6630776.26223847 L 604557.2248618908,6630727.672142891 L 604460.227310648,6630688.986507013 L 604359.7243098358,6630660.627201696 L 604347.3045253342,6630657.813545465 L 604252.8227389915,6630641.128281748 L 604157.1768108625,6630633.574315364 L 604061.2471814164,6630635.221182127 L 603965.9169026515,6630646.05372229 L 603872.0635094194,6630665.97222009 L 603780.5509415366,6630694.793321652 L 603761.9067342468,6630702.699891686 L 603744.5609338862,6630707.309849161 L 603744.5848053882,6630707.399670012 L 603695.4356533907,6630720.276957268 L 603677.9024436142,6630725.58968398 L 603628.8282589398,6630741.856061795 L 603589.8377830732,6630755.908727766 L 603502.5756731143,6630792.102413561 L 603419.1183712711,6630836.369077034 L 603340.2107054808,6630888.31365332 L 603323.11924727,6630900.760573425 L 603286.6250776306,6630924.865210856 L 603213.796256529,6630977.828290463 L 603168.6086990448,6631017.368796563 L 603168.3788444295,6631017.53124569 L 603140.8716464756,6631041.0810855115 L 603114.38662463,6631060.089475286 L 603084.7381181457,6631085.56427879 L 603052.1454367161,6631107.374408584 L 602977.3595125132,6631168.654007335 L 602908.8410756188,6631236.869456374 L 602847.2306448554,6631311.383069245 L 602793.1041621502,6631391.49828348 L 602793.0758054624,6631391.550506884 L 602759.2276104249,6631400.683003016 L 602670.4592327445,6631433.929358883 L 602620.0502979169,6631455.58564931 L 602574.8010129551,6631477.63654236 L 602564.2930521887,6631480.089964778 L 602506.5955493464,6631500.006455161 L 602477.4515741187,6631502.349626017 L 602471.792022932,6631502.820831324 L 602395.1858518964,6631509.418029223 L 602363.6715552047,6631511.729310421 L 602356.2440438579,6631512.30187185 L 602311.1591381988,6631515.946291582 L 602224.2643846006,6631522.919795153 L 602121.6391121437,6631531.234829599 L 602047.5315440901,6631537.242422006 L 601985.4852538747,6631542.26106806 L 601944.4266266016,6631545.58346141 L 601834.1824241667,6631554.511510865 L 601744.9441001447,6631565.7970812 L 601657.0808825834,6631585.055782398 L 601571.303658944,6631612.131795338 L 601488.3064392392,6631646.806052264 L 601408.7607409074,6631688.79800922 L 601403.7996863563,6631691.709477528 L 601316.3156428047,6631749.4185690805 L 601235.3518643704,6631815.966774958 L 601161.7976407699,6631890.623143169 L 601096.460876673,6631972.567663311 L 601040.0592178414,6632060.900273399 L 601029.5589067598,6632081.913531289 L 600968.6470227204,6632072.066028927 L 600872.2002287958,6632065.923597176 L 600860.2443598239,6632065.741119249 L 600855.798044449,6632065.683144503 L 600851.1561329913,6632065.632941473 L 600769.8715260819,6632070.07572661 L 600754.2282360416,6632070.285853316 L 600754.2217000581,6632070.186884881 L 600752.3388134514,6632070.311232769 L 600719.7359936758,6632070.749166422 L 600698.2996701299,6632071.034716629 L 600691.8809486072,6632071.123127958 L 600596.3477513952,6632077.02177448 L 600523.9010300523,6632088.521329339 L 600514.6654260474,6632088.330658931 L 600398.3763929176,6632092.7024233015 L 600362.7009126113,6632098.240777659 L 600277.5428124635,6632101.492711079 L 600234.7952937407,6632105.207801062 L 600134.5276805471,6632119.063935181 L 600036.1744448779,6632142.985217373 L 599940.743273337,6632176.726560064 L 599853.2732505909,6632218.02474019 L 599795.5799248404,6632192.41249989 L 599795.6182056565,6632192.324213626 L 599785.43523492,6632187.908889937 L 599773.7790263812,6632182.73425994 L 599749.9234539747,6632173.831505489 L 599729.0542759445,6632163.973965446 L 599635.155525351,6632130.590904001 L 599618.7728348547,6632125.671097283 L 599524.593570588,6632102.304154649 L 599428.5929546076,6632088.175122227 L 599331.6749045044,6632083.4170354195 L 599234.7519761982,6632088.0746951755 L 599138.7367715404,6632102.104246143 L 599044.5333454855,6632125.37358961 L 598953.0286937375,6632157.663627305 L 598865.0844010222,6632198.670324376 L 598781.5285286226,6632248.007572104 L 598703.1478175625,6632305.210823406 L 598630.6802808517,6632369.741466894 L 598564.8082545414,6632440.9918983 L 598506.15197302,6632518.291241531 L 598455.263729043,6632600.911665464 L 598412.6226734826,6632688.075237021 L 598393.4679570197,6632732.579175335 L 598382.6983029131,6632763.128929395 L 598372.4446147003,6632785.434110781 L 598350.2804312438,6632840.944015409 L 598339.9698787617,6632851.9111500075 L 598277.5542601055,6632933.745407248 L 598250.1458791945,6632973.799380768 L 598246.6561368465,6632977.269819155 L 598227.925587896,6632999.560728125 L 598157.7926236631,6633045.286940545 L 598067.5519445769,6633120.584456454 L 597056.6558696183,6634070.237113876 L 596985.1965066815,6634144.671223002 L 596921.7877121669,6634226.072709049 L 596867.1045917199,6634313.574900398 L 596821.7293498066,6634406.246171965 L 596786.1450910531,6634503.099864108 L 596760.730676691,6634603.104787462 L 596658.3769018756,6635115.264787718 L 596495.8541848994,6635928.538982705 L 596437.6511718229,6636219.763933839 L 596096.3968306143,6637927.026261177 L 594636.9310132073,6637802.831540008 L 594543.703962284,6637799.266016544 L 594450.5503511592,6637804.404179231 L 594358.2809884895,6637818.201305524 L 594267.6989864368,6637840.537305291 L 594179.5927703832,6637871.217766078 L 594094.7292164789,6637909.975645279 L 592506.3056634418,6638727.024228448 L 592502.7462654859,6638728.845978791 L 592344.0183096939,6638810.221373526 L 592260.4803790081,6638858.26724766 L 592181.9551130079,6638914.13114015 L 592109.1717752012,6638977.29424348 L 592042.8063038556,6639047.169962422 L 591983.4750345648,6639123.109361741 L 591931.7289763454,6639204.407192851 L 591888.0486944199,6639290.308443456 L 591852.8398472123,6639380.015349338 L 591826.4294190005,6639472.6948031895 L 591672.0105126462,6640133.976265111 L 591558.5101027025,6640620.021087936 L 591555.1884042249,6640634.264715286 L 591374.6440343205,6641407.387880744 L 591286.162822049,6641786.317135801 L 591267.6349092791,6641798.493831426 L 591191.5401033809,6641859.936817137 L 591121.8114378119,6641928.519418251 L 591059.1159132774,6642003.5855969265 L 591033.073291205,6642041.81603117 L 590940.5162234439,6642082.134382287 L 590918.2151345138,6642093.323333342 L 590808.9710985954,6642157.083734739 L 590775.647125882,6642179.473225188 L 590684.9319151063,6642248.2268993305 L 590602.6176304466,6642326.844172974 L 590529.7707618827,6642414.306455785 L 590514.4774042338,6642434.953055992 L 590450.1740840762,6642533.375771861 L 590397.8663949303,6642638.665152325 L 590395.3014027836,6642644.693798015 L 590364.1792373379,6642727.926488451 L 590348.6283884334,6642775.914903743 L 590325.8208111696,6642858.09431308 L 590323.9455075321,6642868.092563869 L 590314.3927286785,6642881.428717918 L 590262.4373074649,6642972.956063588 L 590220.3891284979,6643069.437001832 L 590216.107500789,6643080.869261693 L 590200.3792574252,6643122.740684489 L 590181.7110069309,6643180.32434036 L 590164.186548013,6643197.805089728 L 590100.4776578265,6643275.623215541 L 590083.6424552414,6643298.4375200495 L 590024.7046887286,6643387.984914829 L 590014.4951979775,6643405.470883177 L 589970.3286920864,6643490.1627253415 L 589934.44389201,6643578.682042417 L 589907.168188716,6643670.221238294 L 589888.7504290388,6643763.945165337 L 589888.2589123414,6643767.281692471 L 589888.1944076198,6643767.682279353 L 589886.5514762915,6643781.826567848 L 589871.7367457959,6643854.541269473 L 589861.6763234735,6643950.437978453 L 589860.8985628898,6644046.8578207 L 589869.4106951889,6644142.904343252 L 589879.5003481358,6644196.862801919 L 589866.1580870397,6644265.782539723 L 589857.0505483418,6644365.157694556 L 589857.8928139654,6644464.945766227 L 589868.6764963191,6644564.153028331 L 589889.2942075185,6644661.791538377 L 589908.1890438184,6644721.198583651 L 589913.7391926573,6644805.054240163 L 589929.1031995994,6644899.293419199 L 589953.3851837447,6644991.637670892 L 589986.3637644087,6645081.24508572 L 590027.7382733793,6645167.298706109 L 590077.1314961308,6645249.0139747 L 590090.124239617,6645268.358316278 L 590157.7630084085,6645357.788134816 L 590212.391486979,6645415.295671798 L 590191.3742057948,6645496.40717118 L 590175.7483634152,6645602.452026511 L 590173.9078655181,6645622.254230586 L 590171.4781525045,6645696.095472454 L 590169.866456583,6645711.474305698 L 590168.8625527902,6645805.135006636 L 590176.6262574329,6645898.478777791 L 590188.6497381061,6645965.820485366 L 590190.3190868086,6645977.741652383 L 590196.0259234589,6646007.778147008 L 590201.1973979479,6646057.852785738 L 590221.402555557,6646155.957077626 L 590230.3740514832,6646184.621940613 L 590235.8746357865,6646274.56718823 L 590250.3787390074,6646367.367183415 L 590273.5256345698,6646458.397010079 L 590282.067427445,6646486.408504378 L 590313.3144043507,6646574.040397973 L 590352.5702553585,6646658.389082031 L 590353.2912471518,6646659.623418183 L 590344.6723854004,6646683.0704014795 L 590329.913398465,6646740.21266025 L 590307.6418584612,6646782.430301015 L 590269.2945464529,6646877.691526577 L 590243.2480393908,6646968.282286937 L 590221.3090448292,6647017.123101836 L 590219.0046067457,6647024.062034483 L 590182.153849386,6647101.361289432 L 590147.6230919432,6647198.425932731 L 590126.5812347801,6647284.890160412 L 590120.7720699888,6647302.579008126 L 590098.7183958353,6647404.605397366 L 590095.1059570712,6647426.895709318 L 590083.6602580273,6647533.348552548 L 590082.9372345569,6647546.837812228 L 590047.710743416,6647571.111212659 L 589972.4948673268,6647634.707920472 L 589903.900445907,6647705.3957879655 L 589842.5929801246,6647782.489003619 L 589789.1672731284,6647865.239611427 L 589772.9354586839,6647893.32641749 L 589729.6580072168,6647977.095446626 L 589694.46254287,6648064.568112856 L 589667.6619599396,6648154.966767727 L 589660.7619499988,6648190.106320888 L 589652.6920302245,6648200.556268909 L 589598.6731123802,6648287.676223333 L 589553.8567794132,6648379.86855622 L 589518.7139582108,6648476.164516996 L 589438.7156361357,6648736.018845078 L 589411.0538247477,6648825.8756056465 L 589365.6181119015,6648903.223176721 L 589325.7671790683,6648906.4489167305 L 589238.4567428345,6648921.380269403 L 589232.2327125233,6648922.730835044 L 589221.9351150257,6648925.6619593585 L 589167.1396926903,6648912.267862169 L 589161.4505151268,6648911.158361015 L 589063.8331359754,6648897.076412533 L 589057.6743574701,6648896.496184477 L 588969.8427256087,6648892.105390546 L 588949.0618602268,6648891.981439274 L 588876.7983070674,6648895.09922838 L 588801.0917224449,6648894.7156271655 L 588797.0790399736,6648894.922646028 L 588677.340772537,6648908.368759107 L 588675.3321587378,6648908.717914607 L 588571.9849908364,6648932.38738194 L 588568.7603357773,6648933.308301804 L 588475.4196675689,6648965.018466131 L 588385.6547305045,6649005.764888516 L 588300.3378615768,6649055.151594618 L 588272.9106517077,6649074.871248563 L 588226.6743662161,6649101.699539856 L 588219.9507945585,6649106.2258279 L 588178.4008314342,6649135.763591856 L 588174.5346064342,6649138.663221816 L 588083.6087585154,6649215.7365307 L 588002.4993771637,6649303.081095608 L 587998.4720150233,6649307.973029773 L 587914.9528095012,6649425.837656021 L 587912.4491191657,6649429.975075692 L 587908.022500696,6649437.303708347 L 587867.9204372474,6649510.429526617 L 587836.4090929095,6649581.336923942 L 587824.3100623619,6649594.126444157 L 587761.2283482957,6649676.435809887 L 587707.0100044846,6649764.835501803 L 587704.9134677566,6649768.688829898 L 587691.735069319,6649793.748756941 L 587686.9800548801,6649803.110215212 L 587681.4900914973,6649815.164026615 L 587680.9675644353,6649815.826292272 L 587674.7136003384,6649823.03670155 L 587674.8952377497,6649823.194245151 L 587639.7738143859,6649862.562022961 L 587620.5829889798,6649888.868604675 L 587594.0626294554,6649912.6902006185 L 587582.848374717,6649923.340596849 L 587574.4845217534,6649932.353886052 L 587504.8026444189,6650000.369001139 L 587500.7499584935,6650004.766884657 L 587454.9198010016,6650059.34448418 L 587392.3669676896,6650101.1458322825 L 587317.6620496569,6650162.259083584 L 587311.9119763663,6650167.445819693 L 587264.5844427369,6650213.872955667 L 587258.1222539835,6650219.473204633 L 587193.9063106684,6650283.493065911 L 587184.9738870856,6650290.87721651 L 587107.6811345768,6650361.922692266 L 587097.2291062775,6650373.780824238 L 587075.4935647736,6650392.004136858 L 587064.9136063674,6650401.6384224575 L 586965.8467301268,6650505.828149544 L 586961.7849648901,6650510.767049539 L 586947.9396882693,6650529.835905774 L 586893.0177681642,6650588.730300217 L 586889.7327673989,6650592.98313087 L 586849.3440366348,6650633.7622071775 L 586782.2047158927,6650718.021106235 L 586766.4892259741,6650742.810821473 L 586752.5746709644,6650762.59220566 L 586737.7095985678,6650770.454421035 L 586696.4134702915,6650756.18520537 L 586598.9915573363,6650733.114124928 L 586499.7509901789,6650719.899976944 L 586399.6864871809,6650716.675210839 L 586299.8010252632,6650723.472149425 L 586201.0957867632,6650740.222664921 L 586104.560124281,6650766.758861817 L 586011.1616440963,6650802.814759752 L 585921.8365075575,6650848.028959502 L 585885.003499655,6650869.052402813 L 585786.9732308319,6650932.88416845 L 585695.9072534828,6651000.080378138 L 585676.1314929301,6651014.682382156 L 585650.096553888,6651033.898911061 L 585569.6220499391,6651100.040869105 L 585496.4646590276,6651174.195441147 L 585486.2917926818,6651185.642697301 L 585471.8808573845,6651201.865534512 L 585471.0927942772,6651202.753744831 L 585464.7331039225,6651209.930203855 L 585462.0689251148,6651212.91958441 L 585404.1905231012,6651284.198505898 L 585373.9711394596,6651329.3159840675 L 585322.7233869103,6651322.76224721 L 585203.6256493324,6651321.806950456 L 585196.4473485745,6651322.177428632 L 585100.4393074414,6651331.793688677 L 585005.8049619015,6651350.61806287 L 584990.342574535,6651355.280773219 L 584965.6003604607,6651347.966738701 L 584954.9534144821,6651344.817414674 L 584858.6440101863,6651321.450563415 L 584760.4946649708,6651307.731338682 L 584661.4693537181,6651303.794483992 L 584562.5406546213,6651309.678665207 L 584464.6801969963,6651325.326090776 L 584368.849118413,6651350.583079336 L 584275.988624873,6651385.201569092 L 584187.0107467435,6651428.841554165 L 584102.7893812419,6651481.074423956 L 584024.1517094437,6651541.387172755 L 583951.8700721147,6651609.187438231 L 583886.654384158,6651683.809319324 L 583880.1677333979,6651692.019449917 L 583870.8630645617,6651703.981571881 L 583842.0892321758,6651741.557429437 L 583814.8805117077,6651776.713652197 L 583805.4778243388,6651787.482352451 L 583788.2477618352,6651809.396116523 L 583764.4544888554,6651832.148809878 L 583700.2257753705,6651907.0153652225 L 583667.2916544322,6651949.474458248 L 583641.5108101756,6651982.579754409 L 583614.7549506644,6652015.47000774 L 583593.2664444284,6652042.8448609635 L 583586.5141975989,6652051.761960384 L 583581.5843317732,6652057.8848142205 L 583563.4966459753,6652081.340813538 L 583498.9037334961,6652153.705144897 L 583446.7368496751,6652226.144396326 L 583433.0993038602,6652240.668921258 L 583354.9273237366,6652334.871100401 L 583323.5354992532,6652383.827426614 L 583311.2807975602,6652399.400697831 L 583288.2009777176,6652426.400150232 L 583270.2606644123,6652446.383887914 L 583240.8231932622,6652480.704531469 L 583226.0583390098,6652498.727689238 L 583196.0591860157,6652537.2265208345 L 583187.7493617204,6652548.4450646825 L 583178.7861363617,6652559.041417739 L 583170.2815966678,6652569.626493695 L 583168.0687511195,6652571.937154064 L 583156.7854995185,6652583.914908054 L 583148.7660287509,6652592.569567236 L 583146.0879110406,6652594.701747347 L 583064.7139653284,6652667.066319113 L 583035.1633129489,6652696.3779879585 L 583006.2108932894,6652724.354759029 L 582957.6491476517,6652774.680701459 L 582946.3181663208,6652787.276511487 L 582920.8667906189,6652817.842817542 L 582894.7444396594,6652843.527625339 L 582869.3570840625,6652874.232923751 L 582810.8483639968,6652930.529522715 L 582774.9910426489,6652973.025485164 L 582742.2341434057,6653007.187344422 L 582735.4313326242,6653014.44711802 L 582731.0957325881,6653018.595641854 L 582714.9189202257,6653034.429023787 L 582700.0258044869,6653049.339718838 L 582698.9979032293,6653050.370332458 L 582677.7394681496,6653071.715910996 L 582637.6600981693,6653114.387988473 L 582610.5626781053,6653144.985831491 L 582562.7608504449,6653203.3646793645 L 582560.2573499926,6653205.689466917 L 582527.1712527992,6653239.133975405 L 582510.2763237165,6653256.6325456435 L 582491.5817453589,6653276.4723694995 L 582480.07584718,6653288.046634012 L 582460.4155323851,6653306.368797528 L 582456.9850010611,6653309.580929903 L 582434.7521927081,6653330.496586139 L 582390.1412389554,6653375.202850518 L 582362.1563134706,6653405.077611276 L 582360.1689294224,6653407.205404298 L 582344.5328672368,6653423.995088254 L 582284.9547779417,6653494.187691863 L 582232.0848513582,6653569.562231253 L 582186.3712420794,6653649.47979035 L 582148.2014438151,6653733.262943942 L 582117.899004781,6653820.201499911 L 582114.6012317248,6653831.279539185 z" /></g></svg>