<svg xmlns="http://www.w3.org/2000/svg" xmlns:xlink="http://www.w3.org/1999/xlink" width="300" height="300" viewBox="576147.3596043183 6628503.213076995 42253.32218949706 42253.32218949683" preserveAspectRatio="xMinYMin meet"><g transform="matrix(1,0,0,-1,0,13299259.748343486)"><path fill-rule="evenodd" fill="#66cc99" stroke="#555555" stroke-width="281.6888145966471" opacity="0.6" d="M 616835.7439349451,6649629.874171743 L 616459.870908138,6645813.571286465 L 615346.6964173452,6642143.926780862 L 613538.9991339722,6638761.963035322 L 611106.2478508508,6635797.647019959 L 608141.9318354886,6633364.895736838 L 604759.9680899486,6631557.198453465 L 601090.3235843447,6630444.023962672 L 597274.0206990668,6630068.150935865 L 593457.7178137889,6630444.023962672 L 589788.073308185,6631557.198453465 L 586406.109562645,6633364.895736838 L 583441.7935472828,6635797.647019959 L 581009.0422641614,6638761.963035322 L 579201.3449807884,6642143.926780862 L 578088.1704899956,6645813.571286465 L 577712.2974631885,6649629.874171743 L 578088.1704899956,6653446.177057021 L 579201.3449807884,6657115.821562625 L 581009.0422641614,6660497.785308165 L 583441.7935472828,6663462.101323527 L 586406.109562645,6665894.852606649 L 589788.073308185,6667702.549890022 L 593457.7178137889,6668815.7243808145 L 597274.0206990668,6669191.597407621 L 601090.3235843447,6668815.7243808145 L 604759.9680899486,6667702.549890022 L 608141.9318354886,6665894.852606649 L 611106.2478508508,6663462.101323527 L 613538.9991339722,6660497.785308165 L 615346.6964173452,6657115.821562625 L 616459.870908138,6653446.177057021 L 616835.7439349451,6649629.874171743 z" /></g></svg>